<svg width="100" height="118" viewBox="0 0 100 118" fill="none" xmlns="http://www.w3.org/2000/svg">
<path d="M0 20C0 8.95432 8.95431 0 20 0H100V97.3333C100 108.379 91.0457 117.333 80 117.333H20C8.9543 117.333 0 108.379 0 97.3333V20Z" fill="#116464"/>
<path d="M8.66666 18.6667C8.66666 16.8257 10.159 15.3333 12 15.3333H92C92 19.0152 89.0152 22 85.3333 22H12C10.159 22 8.66666 20.5076 8.66666 18.6667Z" fill="white"/>
<path d="M8.66666 34.6667C8.66666 32.8257 10.159 31.3333 12 31.3333H92C92 35.0152 89.0152 38 85.3333 38H12C10.159 38 8.66666 36.5076 8.66666 34.6667Z" fill="white"/>
<path d="M8.66666 100C8.66666 98.159 10.159 96.6667 12 96.6667H45.3333C45.3333 100.349 42.3486 103.333 38.6667 103.333H12C10.159 103.333 8.66666 101.841 8.66666 100Z" fill="#FDFDFD"/>
<path d="M55.3333 100C55.3333 98.159 56.8257 96.6667 58.6666 96.6667H92C92 100.349 89.0152 103.333 85.3333 103.333H58.6666C56.8257 103.333 55.3333 101.841 55.3333 100Z" fill="#F8F8F8"/>
<path d="M8.66666 50.6667C8.66666 48.8257 10.159 47.3333 12 47.3333H92C92 51.0152 89.0152 54 85.3333 54H12C10.159 54 8.66666 52.5076 8.66666 50.6667Z" fill="white"/>
<path d="M22.125 71.96L24.555 71.285V80H26.31V69.335L22.125 70.28V71.96ZM29.2295 71.96L31.6595 71.285V80H33.4145V69.335L29.2295 70.28V71.96ZM40.6811 73.1V80H42.2711V73.1H40.6811ZM44.8061 73.1L41.8211 75.95L45.1211 80H47.0861L43.8161 75.95L46.7861 73.1H44.8061ZM54.6928 73.1H48.3778V77.375C48.3778 77.825 48.2678 78.13 48.0478 78.29C47.8378 78.45 47.5828 78.53 47.2828 78.53V80C47.9228 80 48.4378 79.915 48.8278 79.745C49.2278 79.565 49.5178 79.3 49.6978 78.95C49.8778 78.59 49.9678 78.14 49.9678 77.6V74.6H53.1028V80H54.6928V73.1ZM57.9476 77.96C57.9476 77.72 58.0026 77.515 58.1126 77.345C58.2326 77.165 58.4076 77.03 58.6376 76.94C58.8776 76.84 59.1676 76.79 59.5076 76.79C59.9276 76.79 60.2976 76.845 60.6176 76.955C60.9376 77.055 61.2526 77.22 61.5626 77.45V76.595C61.4826 76.495 61.3376 76.38 61.1276 76.25C60.9176 76.12 60.6526 76.005 60.3326 75.905C60.0226 75.805 59.6676 75.755 59.2676 75.755C58.6676 75.755 58.1426 75.845 57.6926 76.025C57.2526 76.205 56.9126 76.465 56.6726 76.805C56.4326 77.145 56.3126 77.55 56.3126 78.02C56.3126 78.49 56.4176 78.885 56.6276 79.205C56.8476 79.515 57.1376 79.75 57.4976 79.91C57.8676 80.07 58.2776 80.15 58.7276 80.15C59.2076 80.15 59.6426 80.07 60.0326 79.91C60.4226 79.74 60.7326 79.5 60.9626 79.19C61.1926 78.87 61.3076 78.49 61.3076 78.05L61.0676 77.27C61.0676 77.67 60.9876 77.99 60.8276 78.23C60.6676 78.47 60.4476 78.645 60.1676 78.755C59.8876 78.865 59.5726 78.92 59.2226 78.92C58.9826 78.92 58.7676 78.885 58.5776 78.815C58.3876 78.735 58.2326 78.625 58.1126 78.485C58.0026 78.345 57.9476 78.17 57.9476 77.96ZM57.5876 74.915C57.6976 74.845 57.8526 74.76 58.0526 74.66C58.2626 74.55 58.5076 74.455 58.7876 74.375C59.0676 74.295 59.3726 74.255 59.7026 74.255C60.0826 74.255 60.4026 74.345 60.6626 74.525C60.9326 74.695 61.0676 74.94 61.0676 75.26V80H62.6576V75.08C62.6576 74.62 62.5326 74.235 62.2826 73.925C62.0426 73.605 61.7076 73.36 61.2776 73.19C60.8476 73.02 60.3476 72.935 59.7776 72.935C59.1576 72.935 58.6076 73.025 58.1276 73.205C57.6476 73.385 57.2526 73.57 56.9426 73.76L57.5876 74.915ZM65.6394 76.55C65.6394 76.12 65.7344 75.74 65.9244 75.41C66.1144 75.08 66.3694 74.82 66.6894 74.63C67.0194 74.44 67.3844 74.345 67.7844 74.345C68.1044 74.345 68.4144 74.395 68.7144 74.495C69.0144 74.595 69.2794 74.735 69.5094 74.915C69.7494 75.085 69.9244 75.285 70.0344 75.515V73.73C69.7944 73.49 69.4694 73.3 69.0594 73.16C68.6494 73.02 68.1994 72.95 67.7094 72.95C66.9994 72.95 66.3594 73.105 65.7894 73.415C65.2294 73.715 64.7844 74.135 64.4544 74.675C64.1344 75.215 63.9744 75.84 63.9744 76.55C63.9744 77.25 64.1344 77.875 64.4544 78.425C64.7844 78.965 65.2294 79.39 65.7894 79.7C66.3594 80 66.9994 80.15 67.7094 80.15C68.1994 80.15 68.6494 80.08 69.0594 79.94C69.4694 79.8 69.7944 79.61 70.0344 79.37V77.585C69.9244 77.805 69.7544 78.005 69.5244 78.185C69.2944 78.365 69.0294 78.505 68.7294 78.605C68.4294 78.705 68.1144 78.755 67.7844 78.755C67.3844 78.755 67.0194 78.66 66.6894 78.47C66.3694 78.28 66.1144 78.025 65.9244 77.705C65.7344 77.375 65.6394 76.99 65.6394 76.55ZM72.905 76.55C72.905 76.12 73 75.74 73.19 75.41C73.38 75.08 73.635 74.82 73.955 74.63C74.285 74.44 74.65 74.345 75.05 74.345C75.37 74.345 75.68 74.395 75.98 74.495C76.28 74.595 76.545 74.735 76.775 74.915C77.015 75.085 77.19 75.285 77.3 75.515V73.73C77.06 73.49 76.735 73.3 76.325 73.16C75.915 73.02 75.465 72.95 74.975 72.95C74.265 72.95 73.625 73.105 73.055 73.415C72.495 73.715 72.05 74.135 71.72 74.675C71.4 75.215 71.24 75.84 71.24 76.55C71.24 77.25 71.4 77.875 71.72 78.425C72.05 78.965 72.495 79.39 73.055 79.7C73.625 80 74.265 80.15 74.975 80.15C75.465 80.15 75.915 80.08 76.325 79.94C76.735 79.8 77.06 79.61 77.3 79.37V77.585C77.19 77.805 77.02 78.005 76.79 78.185C76.56 78.365 76.295 78.505 75.995 78.605C75.695 78.705 75.38 78.755 75.05 78.755C74.65 78.755 74.285 78.66 73.955 78.47C73.635 78.28 73.38 78.025 73.19 77.705C73 77.375 72.905 76.99 72.905 76.55Z" fill="white"/>
</svg>
