<svg width="350" height="350" viewBox="0 0 350 350" fill="none" xmlns="http://www.w3.org/2000/svg">
<rect width="350" height="350" rx="40" fill="#116464"/>
<rect x="26.1017" y="271.695" width="296.61" height="23.7288" fill="#D9D9D9"/>
<rect x="55.7627" y="251.525" width="237.288" height="17.7966" fill="#D9D9D9"/>
<rect x="85.4237" y="237.288" width="177.966" height="11.8644" fill="#D9D9D9"/>
<rect x="281.186" y="249.153" width="118.644" height="11.8644" transform="rotate(-90 281.186 249.153)" fill="#D9D9D9"/>
<rect x="55.7627" y="249.153" width="118.644" height="11.8644" transform="rotate(-90 55.7627 249.153)" fill="#D9D9D9"/>
<rect x="26.1017" y="116.271" width="296.61" height="11.8644" fill="#D9D9D9"/>
<rect x="115.085" y="73.5593" width="118.644" height="11.8644" fill="#D9D9D9"/>
<rect x="85.4237" y="87.7966" width="177.966" height="11.8644" fill="#D9D9D9"/>
<rect x="55.7627" y="102.034" width="237.288" height="11.8644" fill="#D9D9D9"/>
<rect x="115.085" y="228.983" width="118.644" height="5.9322" fill="#D9D9D9"/>
<rect x="144.746" y="220.678" width="59.322" height="5.9322" fill="#D9D9D9"/>
<rect x="172.034" y="71.1865" width="35.5932" height="4.74576" transform="rotate(-90 172.034 71.1865)" fill="#D9D9D9"/>
<path d="M179.153 35.5933H220.678L211.021 44.4916L220.678 53.3899H179.153V35.5933Z" fill="#D9D9D9"/>
<path d="M188.508 39.5299L190.776 38.8999V47.0339H192.414V37.0799L188.508 37.9619V39.5299ZM195.138 39.5299L197.406 38.8999V47.0339H199.044V37.0799L195.138 37.9619V39.5299Z" fill="#116464"/>
<path d="M150.678 162.542L174.407 163.729L198.136 162.542V186.271L174.407 185.085L150.678 186.271V162.542Z" fill="#2A1010"/>
<line x1="174.907" y1="162.542" x2="174.907" y2="186.271" stroke="#784848"/>
<line x1="199.822" y1="161.356" x2="199.822" y2="187.458" stroke="#784848"/>
<line x1="149.992" y1="161.356" x2="149.992" y2="187.458" stroke="#784848"/>
<line x1="175.614" y1="185.584" x2="149.512" y2="186.673" stroke="#784848"/>
<line x1="200.486" y1="186.771" x2="174.384" y2="185.584" stroke="#784848"/>
<line x1="175.555" y1="163.242" x2="150.65" y2="161.855" stroke="#784848"/>
<line x1="200.531" y1="161.855" x2="174.429" y2="163.042" stroke="#784848"/>
<path d="M150.678 162.542L174.407 163.729V185.085L150.678 186.271V162.542Z" fill="#D9D9D9"/>
<path d="M199.322 186.271L175.593 185.085V163.729L199.322 162.542V186.271Z" fill="#D9D9D9"/>
</svg>
