<svg width="94" height="86" viewBox="0 0 94 86" fill="none" xmlns="http://www.w3.org/2000/svg">
<path d="M93 21C93 28.1797 87.1797 34 80 34M93 21C93 13.8203 87.1797 8 80 8M93 21H67M80 34C72.8203 34 67 28.1797 67 21M80 34C83.2517 30.4401 85.0996 25.8204 85.2 21C85.0996 16.1796 83.2517 11.5599 80 8M80 34C76.7483 30.4401 74.9004 25.8204 74.8 21C74.9004 16.1796 76.7483 11.5599 80 8M67 21C67 13.8203 72.8203 8 80 8" stroke="#2A3354" stroke-linecap="round" stroke-linejoin="round"/>
<path d="M2.7 14.704L8.532 13.084V34H12.744V8.404L2.7 10.672V14.704ZM19.7508 14.704L25.5828 13.084V34H29.7948V8.404L19.7508 10.672V14.704ZM2.34 60.44V77H6.156V60.44H2.34ZM12.24 60.44L5.076 67.28L12.996 77H17.712L9.864 67.28L16.992 60.44H12.24ZM35.9682 60.44H20.8122V70.7C20.8122 71.78 20.5482 72.512 20.0202 72.896C19.5162 73.28 18.9042 73.472 18.1842 73.472V77C19.7202 77 20.9562 76.796 21.8922 76.388C22.8522 75.956 23.5482 75.32 23.9802 74.48C24.4122 73.616 24.6282 72.536 24.6282 71.24V64.04H32.1522V77H35.9682V60.44ZM43.7797 72.104C43.7797 71.528 43.9117 71.036 44.1757 70.628C44.4637 70.196 44.8837 69.872 45.4357 69.656C46.0117 69.416 46.7077 69.296 47.5237 69.296C48.5317 69.296 49.4197 69.428 50.1877 69.692C50.9557 69.932 51.7117 70.328 52.4557 70.88V68.828C52.2637 68.588 51.9157 68.312 51.4117 68C50.9077 67.688 50.2717 67.412 49.5037 67.172C48.7597 66.932 47.9077 66.812 46.9477 66.812C45.5077 66.812 44.2477 67.028 43.1677 67.46C42.1117 67.892 41.2957 68.516 40.7197 69.332C40.1437 70.148 39.8557 71.12 39.8557 72.248C39.8557 73.376 40.1077 74.324 40.6117 75.092C41.1397 75.836 41.8357 76.4 42.6997 76.784C43.5877 77.168 44.5717 77.36 45.6517 77.36C46.8037 77.36 47.8477 77.168 48.7837 76.784C49.7197 76.376 50.4637 75.8 51.0157 75.056C51.5677 74.288 51.8437 73.376 51.8437 72.32L51.2677 70.448C51.2677 71.408 51.0757 72.176 50.6917 72.752C50.3077 73.328 49.7797 73.748 49.1077 74.012C48.4357 74.276 47.6797 74.408 46.8397 74.408C46.2637 74.408 45.7477 74.324 45.2917 74.156C44.8357 73.964 44.4637 73.7 44.1757 73.364C43.9117 73.028 43.7797 72.608 43.7797 72.104ZM42.9157 64.796C43.1797 64.628 43.5517 64.424 44.0317 64.184C44.5357 63.92 45.1237 63.692 45.7957 63.5C46.4677 63.308 47.1997 63.212 47.9917 63.212C48.9037 63.212 49.6717 63.428 50.2957 63.86C50.9437 64.268 51.2677 64.856 51.2677 65.624V77H55.0837V65.192C55.0837 64.088 54.7837 63.164 54.1837 62.42C53.6077 61.652 52.8037 61.064 51.7717 60.656C50.7397 60.248 49.5397 60.044 48.1717 60.044C46.6837 60.044 45.3637 60.26 44.2117 60.692C43.0597 61.124 42.1117 61.568 41.3677 62.024L42.9157 64.796ZM62.2401 68.72C62.2401 67.688 62.4681 66.776 62.9241 65.984C63.3801 65.192 63.9921 64.568 64.7601 64.112C65.5521 63.656 66.4281 63.428 67.3881 63.428C68.1561 63.428 68.9001 63.548 69.6201 63.788C70.3401 64.028 70.9761 64.364 71.5281 64.796C72.1041 65.204 72.5241 65.684 72.7881 66.236V61.952C72.2121 61.376 71.4321 60.92 70.4481 60.584C69.4641 60.248 68.3841 60.08 67.2081 60.08C65.5041 60.08 63.9681 60.452 62.6001 61.196C61.2561 61.916 60.1881 62.924 59.3961 64.22C58.6281 65.516 58.2441 67.016 58.2441 68.72C58.2441 70.4 58.6281 71.9 59.3961 73.22C60.1881 74.516 61.2561 75.536 62.6001 76.28C63.9681 77 65.5041 77.36 67.2081 77.36C68.3841 77.36 69.4641 77.192 70.4481 76.856C71.4321 76.52 72.2121 76.064 72.7881 75.488V71.204C72.5241 71.732 72.1161 72.212 71.5641 72.644C71.0121 73.076 70.3761 73.412 69.6561 73.652C68.9361 73.892 68.1801 74.012 67.3881 74.012C66.4281 74.012 65.5521 73.784 64.7601 73.328C63.9921 72.872 63.3801 72.26 62.9241 71.492C62.4681 70.7 62.2401 69.776 62.2401 68.72ZM79.6776 68.72C79.6776 67.688 79.9056 66.776 80.3616 65.984C80.8176 65.192 81.4296 64.568 82.1976 64.112C82.9896 63.656 83.8656 63.428 84.8256 63.428C85.5936 63.428 86.3376 63.548 87.0576 63.788C87.7776 64.028 88.4136 64.364 88.9656 64.796C89.5416 65.204 89.9616 65.684 90.2256 66.236V61.952C89.6496 61.376 88.8696 60.92 87.8856 60.584C86.9016 60.248 85.8216 60.08 84.6456 60.08C82.9416 60.08 81.4056 60.452 80.0376 61.196C78.6936 61.916 77.6256 62.924 76.8336 64.22C76.0656 65.516 75.6816 67.016 75.6816 68.72C75.6816 70.4 76.0656 71.9 76.8336 73.22C77.6256 74.516 78.6936 75.536 80.0376 76.28C81.4056 77 82.9416 77.36 84.6456 77.36C85.8216 77.36 86.9016 77.192 87.8856 76.856C88.8696 76.52 89.6496 76.064 90.2256 75.488V71.204C89.9616 71.732 89.5536 72.212 89.0016 72.644C88.4496 73.076 87.8136 73.412 87.0936 73.652C86.3736 73.892 85.6176 74.012 84.8256 74.012C83.8656 74.012 82.9896 73.784 82.1976 73.328C81.4296 72.872 80.8176 72.26 80.3616 71.492C79.9056 70.7 79.6776 69.776 79.6776 68.72Z" fill="#001049"/>
</svg>
